<svg xmlns="http://www.w3.org/2000/svg" viewBox="0 0 600 600" width="600" height="600" role="img" aria-label="Ilustración del maestro Ramón Anaya">
<title>Ilustración del maestro Ramón Anaya</title>

<rect width="600" height="600" fill="#f6ead0"/>
<circle cx="300" cy="300" r="230" fill="#9fc3b3"/>

<path d="M130 600C140 480 210 430 300 430C390 430 460 480 470 600Z" fill="#3b2f2a"/>
<rect x="286" y="440" width="28" height="70" rx="6" fill="#F2C14E"/>
<path d="M268 380h64v70c-20 14-44 14-64 0z" fill="#bf8c68"/>
<ellipse cx="300" cy="300" rx="96" ry="112" fill="#e0b08c"/>
<ellipse cx="206" cy="312" rx="14" ry="22" fill="#e0b08c"/><ellipse cx="394" cy="312" rx="14" ry="22" fill="#e0b08c"/>
<path d="M206 280C204 206 250 180 300 180C356 180 398 210 394 280C382 248 356 232 330 236C300 222 256 226 230 246C218 256 210 268 206 280Z" fill="#b9b4ab"/><path d="M226 360C236 420 270 440 300 440C330 440 364 420 374 360C360 390 330 400 300 400C270 400 240 390 226 360Z" fill="#b9b4ab"/>
<path d="M258 300q12-10 24 0M318 300q12-10 24 0" stroke="#2a211d" stroke-width="5" fill="none" stroke-linecap="round"/>
<path d="M270 358q30 22 60 0" stroke="#2a211d" stroke-width="5" fill="none" stroke-linecap="round"/>
<ellipse cx="248" cy="336" rx="16" ry="9" fill="#e98a7a" opacity=".35"/><ellipse cx="352" cy="336" rx="16" ry="9" fill="#e98a7a" opacity=".35"/>
<g fill="none" stroke="#2a211d" stroke-width="5"><circle cx="270" cy="302" r="26"/><circle cx="330" cy="302" r="26"/><path d="M296 302h8M244 298l-30-6M356 298l30-6"/></g>
</svg>
